<?xml version="1.0" encoding="iso-8859-1"?>
<!-- Generator: Adobe Illustrator 21.0.0, SVG Export Plug-In . SVG Version: 6.00 Build 0)  -->
<svg version="1.1"  xmlns="http://www.w3.org/2000/svg" xmlns:xlink="http://www.w3.org/1999/xlink" x="0px" y="0px"
	 viewBox="0 0 48 48" style="enable-background:new 0 0 48 48;" xml:space="preserve">
<path style="fill:#FFCA28;" d="M13,6c0,2,5,3,8,3s9-5,4-5S17,6,13,6z"/>
<path style="fill:#738D99;" d="M41,39.998c0.187-8.405-11.998-10.999-11.998-10.999h-10c0,0-12.011,2.344-12.002,10.999L7.002,43h34
	L41,39.998z"/>
<polygon style="fill:#FFFFFF;" points="19,28.999 29,28.999 25,43 23,43 "/>
<polygon style="fill:#FB8C00;" points="19,29 19,24 29,24 29,29 26,31 22,31 "/>
<path style="fill:#FB8C00;" d="M35,18c0,1.105-0.895,2-2,2c-1.104,0-2-0.895-2-2s0.896-2,2-2C34.105,16,35,16.895,35,18 M17,18
	c0-1.105-0.895-2-2-2s-2,0.895-2,2s0.895,2,2,2S17,19.105,17,18"/>
<path style="fill:#FFA726;" d="M33,11H15v9c0,4.418,3.582,8,8,8h2c4.418,0,8-3.582,8-8V11z"/>
<path style="fill:#FFCA28;" d="M14.002,14v2.286l2,1.714c0,0,0-1,0-4s4.236-4,9.53-4c3.306,0,5.658,1.23,5.658,1.23S32,12,32,14
	c0,1,0,4,0,4l2.002-1.742V14c0-4-2.629-6-8.385-6C21.297,8,14.002,8.51,14.002,14z"/>
<path style="fill:#37474F;" d="M22,19h-3c0-0.551,0.672-1,1.5-1S22,18.449,22,19 M29,19c0-0.551-0.672-1-1.5-1S26,18.449,26,19H29"
	/>
<g>
	<g>
		<path style="fill:#FFD54F;" d="M20.5,16c-0.828,0-2.5,1-2.5,1s0.997,0,2,0s2,0,2,0C22,16.449,21.328,16,20.5,16z M27.5,16
			c-0.828,0-1.5,0.449-1.5,1c0,0,1.009,0,2,0s2,0,2,0S28.328,16,27.5,16z"/>
	</g>
</g>
<polygon style="fill:#F44336;" points="25,33 23,33 22.075,39.764 23,43 25,43 25.925,39.764 "/>
<polygon style="fill:#F44336;" points="22,31 23,33 25,33 26,31 "/>
<path style="fill:#FFD54F;" d="M11,9c0,2,5.227,5,12.541,5C31.674,14,34,11.626,34,9c0-1.975-1.375-5-10-5C20,4,14,9,11,9z"/>
<path style="fill:#FFA726;" d="M26,27c0,1.105-0.895,2-2,2c-1.104,0-2-0.895-2-2s0.896-2,2-2C25.105,25,26,25.895,26,27"/>
<path style="fill:#F57C00;" d="M22,24h4c0,0.889-1,1.333-1,1.333h-2C23,25.333,22,24.889,22,24z"/>
<path style="fill:#F57C00;" d="M25.5,26h-3c0-0.889,0.75-1.333,0.75-1.333h1.5C24.75,24.667,25.5,25.111,25.5,26z"/>
</svg>
